<svg width="315" height="330" viewBox="0 0 315 330" fill="none" xmlns="http://www.w3.org/2000/svg">
<path d="M197.121 238.935C186.426 199.521 232.607 161.873 259.784 189.05C271.505 200.771 272.843 219.721 266.103 235.495C250.534 271.925 206.298 272.779 197.121 238.935Z" fill="#FAC663" fill-opacity="0.15"/>
<path d="M176.579 208.013C206.64 238.074 164.627 298.088 127.681 277.915C110.85 268.723 105.219 244.762 117.221 223.255C130.669 199.144 159.679 191.113 176.579 208.013Z" fill="#FAC663" fill-opacity="0.15"/>
<path d="M259.652 109.477C254.324 106.456 246.171 99.7895 238.309 92.1414C229.991 84.0635 221.995 74.8933 217.978 67.8036C207.155 48.6294 176.644 38.3227 160.141 63.7812C144.887 87.3191 160.874 101.096 146.012 122.997C130.981 145.12 135.795 167.865 149.891 180.559C162.938 192.306 183.938 195.438 204.487 181.464C226.38 166.568 240.116 182.535 263.641 167.281C289.133 150.778 278.729 120.279 259.652 109.477Z" fill="#FAC663" fill-opacity="0.15"/>
<path d="M123.674 155.105C132.177 163.608 134.544 175.846 131.049 187.457C120.652 221.98 69.7465 233.261 53.7866 203.983C33.588 166.965 93.6295 125.06 123.674 155.105Z" fill="#FAC663" fill-opacity="0.15"/>
<path d="M144.467 107.137C130.518 140.39 78.8105 146.339 66.0305 115.418C50.6349 78.1724 109.363 42.6614 138.304 71.6019C147.591 80.8895 149.77 94.4962 144.467 107.137Z" fill="#FAC663" fill-opacity="0.15"/>
</svg>
