<svg width="284" height="282" viewBox="0 0 284 282" fill="none" xmlns="http://www.w3.org/2000/svg">
<path d="M196.22 91.9209C158.406 102.219 122.342 57.9615 148.436 31.8676C159.69 20.6134 177.867 19.3107 192.99 25.76C227.917 40.6565 228.691 83.0838 196.22 91.9209Z" fill="#FFFEFD" fill-opacity="0.2"/>
<path d="M166.54 111.655C195.404 82.7916 252.923 123.027 233.538 158.484C224.704 174.637 201.716 180.062 181.1 168.572C157.987 155.698 150.314 127.881 166.54 111.655Z" fill="#FFFEFD" fill-opacity="0.2"/>
<path d="M72.1138 32.0749C69.2104 37.1884 62.8082 45.0142 55.4646 52.5635C47.7082 60.5497 38.9046 68.2282 32.1005 72.0883C13.6986 82.4887 3.78213 111.763 28.184 127.566C50.7449 142.173 63.9753 126.826 84.9663 141.059C106.17 155.454 127.992 150.813 140.181 137.28C151.461 124.754 154.486 104.609 141.104 84.9131C126.839 63.9297 142.167 50.7389 127.56 28.1899C111.757 3.75618 82.4935 13.7664 72.1138 32.0749Z" fill="#FFFEFD" fill-opacity="0.2"/>
<path d="M115.74 162.452C123.904 154.288 135.645 152.004 146.778 155.345C179.881 165.283 190.649 214.097 162.551 229.435C127.025 248.846 86.8926 191.299 115.74 162.452Z" fill="#FFFEFD" fill-opacity="0.2"/>
<path d="M69.7526 142.557C101.633 155.902 107.288 205.491 77.6162 217.781C41.8767 232.585 7.87563 176.292 35.6631 148.504C44.5807 139.587 57.6337 137.483 69.7526 142.557Z" fill="#FFFEFD" fill-opacity="0.2"/>
</svg>
