<svg width="36" height="36" viewBox="0 0 36 36" fill="none" xmlns="http://www.w3.org/2000/svg">
<path d="M36.0002 18C36.0002 22.8079 34.1279 27.3277 30.7282 30.7279C27.3293 34.1268 22.8095 35.9992 18.0024 36H18.0002C13.1924 36 8.67175 34.1277 5.27231 30.7279C1.87259 27.3277 0.000244141 22.8079 0.000244141 18C0.000244141 13.1921 1.87259 8.67151 5.27231 5.27206C8.67175 1.87234 13.1924 0 18.0002 0H18.0024C22.8095 0.000823978 27.3293 1.87317 30.7282 5.27206C34.1279 8.67151 36.0002 13.1921 36.0002 18Z" fill="#FFFEFD"/>
<path d="M24.8034 15.5245C21.8389 17.2247 22.3438 22.1874 25.5593 22.1874C26.9462 22.1874 28.1464 21.1448 28.6808 19.8119C29.915 16.7336 27.3485 14.0643 24.8034 15.5245Z" fill="#FF7236"/>
<path d="M21.7587 16.1391C25.3156 16.1391 26.3805 10.0992 23.0014 9.10618C21.4618 8.65392 19.7112 9.73911 19.1489 11.7228C18.518 13.9463 19.7592 16.1391 21.7587 16.1391Z" fill="#FF7236"/>
<path d="M20.844 26.8903C20.35 26.7537 19.4734 26.6658 18.5557 26.6531C17.5858 26.6389 16.5702 26.7084 15.9131 26.8903C14.1385 27.3847 11.7237 26.1886 12.2536 23.7045C12.7436 21.408 14.5045 21.5389 14.9209 19.3625C15.3404 17.163 16.9709 16.1015 18.5557 16.1844C20.0226 16.2614 21.4502 17.3192 21.8392 19.363C22.2531 21.5409 24.0103 21.4088 24.4997 23.7045C25.0315 26.1906 22.6116 27.3802 20.844 26.8903Z" fill="#FF7236"/>
<path d="M15.4988 16.1393C16.5049 16.1393 17.369 15.555 17.8491 14.6607C19.2764 12.0014 16.9322 8.32 14.256 9.10841C10.871 10.1041 11.944 16.1393 15.4988 16.1393Z" fill="#FF7236"/>
<path d="M13.8912 20.21C15.0332 17.4157 12.3262 14.0024 9.74076 15.0764C6.62651 16.3699 8.00004 21.9488 11.4243 21.9488C12.5232 21.9488 13.4571 21.2723 13.8912 20.21Z" fill="#FF7236"/>
<path d="M20.8439 26.8903C20.3499 26.7537 19.4733 26.6658 18.5557 26.6531V16.1844C20.0225 16.2614 21.4501 17.3192 21.8391 19.363C22.2531 21.5409 24.0103 21.4088 24.4996 23.7045C25.0314 26.1906 22.6115 27.3802 20.8439 26.8903Z" fill="#FF7236"/>
</svg>
