<svg width="411" height="403" viewBox="0 0 411 403" fill="none" xmlns="http://www.w3.org/2000/svg">
<path d="M108.719 229.963C158.952 222.72 198.362 285.346 160.716 314.759C144.479 327.444 120.906 326.236 102.477 315.545C59.9154 290.851 65.5865 236.175 108.719 229.963Z" fill="#FAC663" fill-opacity="0.15"/>
<path d="M149.977 209.297C108.335 241.831 40.708 180.973 71.2017 138.457C85.0959 119.088 115.502 115.76 140.201 133.804C167.893 154.022 173.387 191.007 149.977 209.297Z" fill="#FAC663" fill-opacity="0.15"/>
<path d="M258.869 326.598C263.405 320.483 272.866 311.436 283.493 302.894C294.719 293.856 307.244 285.379 316.598 281.495C341.89 271.041 359.238 234.973 330.349 210.783C303.64 188.423 284.219 206.058 259.469 184.428C234.47 162.556 205.688 165.062 187.89 180.529C171.42 194.846 164.367 220.268 178.477 247.716C193.519 276.959 171.74 291.488 186.976 322.798C203.454 356.722 242.649 348.493 258.869 326.598Z" fill="#FAC663" fill-opacity="0.15"/>
<path d="M223.267 152.04C211.488 161.242 196.036 162.316 182.248 156.254C141.252 138.226 135.077 73.7523 173.61 58.4881C222.333 39.1648 264.886 119.523 223.267 152.04Z" fill="#FAC663" fill-opacity="0.15"/>
<path d="M279.263 184.915C240.374 162.699 240.896 98.0402 280.973 86.9451C329.246 73.5786 364.113 151.353 324.024 182.675C311.158 192.727 294.046 193.361 279.263 184.915Z" fill="#FAC663" fill-opacity="0.15"/>
</svg>
